<svg width="370" height="300" viewBox="0 0 370 300" fill="none" xmlns="http://www.w3.org/2000/svg">
<path d="M0 19C0 8.50659 8.50659 0 19 0H351C361.493 0 370 8.50659 370 19V145.045C370 155.538 361.493 164.045 351 164.045H280H226C206.67 164.045 191 179.715 191 199.045V281C191 291.493 182.493 300 172 300H19C8.50659 300 0 291.493 0 281V19Z" fill="#496AF1"/>
<path d="M209 203.146C209 192.101 217.954 183.146 229 183.146H352C361.941 183.146 370 191.205 370 201.146V282C370 291.942 361.941 300 352 300H227C217.059 300 209 291.942 209 282V203.146Z" fill="#E6E51E"/>
</svg>
