<svg width="370" height="300" viewBox="0 0 370 300" fill="none" xmlns="http://www.w3.org/2000/svg">
<path d="M0 19C0 8.50659 8.50659 0 19 0H351C361.493 0 370 8.50659 370 19V145.045C370 155.538 361.493 164.045 351 164.045H280H226C206.67 164.045 191 179.715 191 199.045V281C191 291.493 182.493 300 172 300H19C8.50659 300 0 291.493 0 281V19Z" fill="#496AF1"/>
<path d="M209 203.146C209 192.101 217.954 183.146 229 183.146H352C361.941 183.146 370 191.205 370 201.146V282C370 291.942 361.941 300 352 300H227C217.059 300 209 291.942 209 282V203.146Z" fill="#E6E51E"/>
<path d="M262.094 236.312V238H256.375V236.312H262.094ZM257.023 226.625V238H254.875V226.625H257.023ZM267.172 238.156C266.531 238.156 265.956 238.052 265.445 237.844C264.935 237.635 264.5 237.346 264.141 236.977C263.786 236.602 263.513 236.167 263.32 235.672C263.133 235.172 263.039 234.635 263.039 234.062V233.75C263.039 233.099 263.133 232.508 263.32 231.977C263.508 231.44 263.773 230.979 264.117 230.594C264.461 230.208 264.872 229.911 265.352 229.703C265.831 229.495 266.359 229.391 266.938 229.391C267.536 229.391 268.065 229.492 268.523 229.695C268.982 229.893 269.365 230.174 269.672 230.539C269.979 230.904 270.211 231.341 270.367 231.852C270.523 232.357 270.602 232.917 270.602 233.531V234.398H263.977V232.977H268.57V232.82C268.56 232.492 268.497 232.193 268.383 231.922C268.268 231.646 268.091 231.427 267.852 231.266C267.612 231.099 267.302 231.016 266.922 231.016C266.615 231.016 266.346 231.083 266.117 231.219C265.893 231.349 265.706 231.536 265.555 231.781C265.409 232.021 265.299 232.307 265.227 232.641C265.154 232.974 265.117 233.344 265.117 233.75V234.062C265.117 234.417 265.164 234.745 265.258 235.047C265.357 235.349 265.5 235.612 265.688 235.836C265.88 236.055 266.109 236.227 266.375 236.352C266.646 236.471 266.953 236.531 267.297 236.531C267.729 236.531 268.12 236.448 268.469 236.281C268.823 236.109 269.13 235.857 269.391 235.523L270.43 236.602C270.253 236.862 270.013 237.112 269.711 237.352C269.414 237.591 269.055 237.786 268.633 237.938C268.211 238.083 267.724 238.156 267.172 238.156ZM275.984 229.547V231.031H271.141V229.547H275.984ZM272.438 227.469H274.508V235.562C274.508 235.812 274.542 236.005 274.609 236.141C274.677 236.276 274.779 236.367 274.914 236.414C275.049 236.461 275.211 236.484 275.398 236.484C275.534 236.484 275.659 236.477 275.773 236.461C275.888 236.445 275.984 236.43 276.062 236.414L276.07 237.961C275.898 238.018 275.703 238.065 275.484 238.102C275.271 238.138 275.029 238.156 274.758 238.156C274.294 238.156 273.888 238.078 273.539 237.922C273.19 237.76 272.919 237.503 272.727 237.148C272.534 236.789 272.438 236.315 272.438 235.727V227.469ZM279.367 226V227.148C279.367 227.477 279.305 227.82 279.18 228.18C279.06 228.534 278.893 228.872 278.68 229.195C278.471 229.513 278.234 229.786 277.969 230.016L276.969 229.414C277.177 229.096 277.346 228.758 277.477 228.398C277.612 228.034 277.68 227.62 277.68 227.156V226H279.367ZM284.305 235.688C284.305 235.51 284.258 235.352 284.164 235.211C284.07 235.07 283.893 234.943 283.633 234.828C283.378 234.708 283.003 234.596 282.508 234.492C282.07 234.398 281.667 234.281 281.297 234.141C280.927 234 280.609 233.831 280.344 233.633C280.078 233.43 279.87 233.193 279.719 232.922C279.573 232.646 279.5 232.328 279.5 231.969C279.5 231.62 279.576 231.292 279.727 230.984C279.878 230.672 280.096 230.398 280.383 230.164C280.669 229.924 281.018 229.737 281.43 229.602C281.841 229.461 282.305 229.391 282.82 229.391C283.539 229.391 284.156 229.508 284.672 229.742C285.193 229.977 285.591 230.299 285.867 230.711C286.143 231.117 286.281 231.576 286.281 232.086H284.219C284.219 231.862 284.167 231.659 284.062 231.477C283.964 231.294 283.81 231.148 283.602 231.039C283.393 230.924 283.13 230.867 282.812 230.867C282.526 230.867 282.284 230.914 282.086 231.008C281.893 231.102 281.747 231.224 281.648 231.375C281.549 231.526 281.5 231.693 281.5 231.875C281.5 232.01 281.526 232.133 281.578 232.242C281.635 232.346 281.727 232.443 281.852 232.531C281.977 232.62 282.146 232.701 282.359 232.773C282.578 232.846 282.846 232.917 283.164 232.984C283.794 233.109 284.344 233.276 284.812 233.484C285.286 233.688 285.656 233.958 285.922 234.297C286.188 234.635 286.32 235.068 286.32 235.594C286.32 235.969 286.24 236.312 286.078 236.625C285.917 236.932 285.682 237.201 285.375 237.43C285.068 237.659 284.701 237.839 284.273 237.969C283.846 238.094 283.365 238.156 282.828 238.156C282.052 238.156 281.396 238.018 280.859 237.742C280.323 237.461 279.917 237.107 279.641 236.68C279.365 236.247 279.227 235.799 279.227 235.336H281.203C281.219 235.664 281.307 235.927 281.469 236.125C281.63 236.323 281.833 236.466 282.078 236.555C282.328 236.638 282.591 236.68 282.867 236.68C283.18 236.68 283.443 236.638 283.656 236.555C283.87 236.466 284.031 236.349 284.141 236.203C284.25 236.052 284.305 235.88 284.305 235.688ZM297.984 235.047C297.984 234.828 297.951 234.633 297.883 234.461C297.82 234.284 297.703 234.125 297.531 233.984C297.365 233.839 297.128 233.698 296.82 233.562C296.518 233.422 296.128 233.276 295.648 233.125C295.117 232.958 294.622 232.771 294.164 232.562C293.706 232.354 293.302 232.112 292.953 231.836C292.609 231.56 292.341 231.242 292.148 230.883C291.956 230.518 291.859 230.096 291.859 229.617C291.859 229.148 291.958 228.721 292.156 228.336C292.359 227.951 292.646 227.62 293.016 227.344C293.385 227.062 293.82 226.846 294.32 226.695C294.826 226.544 295.383 226.469 295.992 226.469C296.836 226.469 297.565 226.622 298.18 226.93C298.799 227.237 299.279 227.654 299.617 228.18C299.956 228.706 300.125 229.297 300.125 229.953H297.984C297.984 229.599 297.909 229.286 297.758 229.016C297.612 228.745 297.388 228.531 297.086 228.375C296.789 228.219 296.414 228.141 295.961 228.141C295.523 228.141 295.159 228.206 294.867 228.336C294.581 228.466 294.365 228.643 294.219 228.867C294.078 229.091 294.008 229.341 294.008 229.617C294.008 229.826 294.057 230.013 294.156 230.18C294.255 230.341 294.404 230.495 294.602 230.641C294.799 230.781 295.044 230.914 295.336 231.039C295.633 231.159 295.977 231.279 296.367 231.398C296.992 231.586 297.539 231.794 298.008 232.023C298.482 232.253 298.875 232.513 299.188 232.805C299.505 233.096 299.742 233.424 299.898 233.789C300.06 234.154 300.141 234.568 300.141 235.031C300.141 235.521 300.044 235.958 299.852 236.344C299.659 236.729 299.383 237.057 299.023 237.328C298.664 237.599 298.232 237.805 297.727 237.945C297.227 238.086 296.667 238.156 296.047 238.156C295.495 238.156 294.948 238.083 294.406 237.938C293.87 237.786 293.383 237.562 292.945 237.266C292.508 236.964 292.159 236.583 291.898 236.125C291.638 235.661 291.508 235.12 291.508 234.5H293.664C293.664 234.859 293.721 235.167 293.836 235.422C293.956 235.672 294.122 235.878 294.336 236.039C294.555 236.195 294.81 236.31 295.102 236.383C295.393 236.456 295.708 236.492 296.047 236.492C296.484 236.492 296.844 236.432 297.125 236.312C297.411 236.188 297.625 236.016 297.766 235.797C297.911 235.578 297.984 235.328 297.984 235.047ZM305.641 229.547V231.031H300.797V229.547H305.641ZM302.094 227.469H304.164V235.562C304.164 235.812 304.198 236.005 304.266 236.141C304.333 236.276 304.435 236.367 304.57 236.414C304.706 236.461 304.867 236.484 305.055 236.484C305.19 236.484 305.315 236.477 305.43 236.461C305.544 236.445 305.641 236.43 305.719 236.414L305.727 237.961C305.555 238.018 305.359 238.065 305.141 238.102C304.927 238.138 304.685 238.156 304.414 238.156C303.951 238.156 303.544 238.078 303.195 237.922C302.846 237.76 302.576 237.503 302.383 237.148C302.19 236.789 302.094 236.315 302.094 235.727V227.469ZM311.672 236.203V232.305C311.672 232.018 311.622 231.771 311.523 231.562C311.424 231.354 311.273 231.193 311.07 231.078C310.867 230.964 310.609 230.906 310.297 230.906C310.021 230.906 309.779 230.953 309.57 231.047C309.367 231.141 309.211 231.273 309.102 231.445C308.992 231.612 308.938 231.805 308.938 232.023H306.867C306.867 231.674 306.951 231.344 307.117 231.031C307.284 230.714 307.521 230.432 307.828 230.188C308.141 229.938 308.513 229.742 308.945 229.602C309.383 229.461 309.872 229.391 310.414 229.391C311.055 229.391 311.625 229.5 312.125 229.719C312.63 229.932 313.026 230.255 313.312 230.688C313.604 231.12 313.75 231.664 313.75 232.32V236.008C313.75 236.43 313.776 236.792 313.828 237.094C313.885 237.391 313.969 237.648 314.078 237.867V238H311.977C311.878 237.786 311.802 237.516 311.75 237.188C311.698 236.854 311.672 236.526 311.672 236.203ZM311.961 232.852L311.977 234.078H310.672C310.349 234.078 310.065 234.112 309.82 234.18C309.576 234.242 309.375 234.336 309.219 234.461C309.062 234.581 308.945 234.727 308.867 234.898C308.789 235.065 308.75 235.255 308.75 235.469C308.75 235.677 308.797 235.865 308.891 236.031C308.99 236.198 309.13 236.331 309.312 236.43C309.5 236.523 309.719 236.57 309.969 236.57C310.333 236.57 310.651 236.497 310.922 236.352C311.193 236.201 311.404 236.018 311.555 235.805C311.706 235.591 311.786 235.388 311.797 235.195L312.391 236.086C312.318 236.299 312.208 236.526 312.062 236.766C311.917 237.005 311.729 237.229 311.5 237.438C311.271 237.646 310.995 237.818 310.672 237.953C310.349 238.089 309.974 238.156 309.547 238.156C309 238.156 308.51 238.047 308.078 237.828C307.646 237.609 307.305 237.31 307.055 236.93C306.805 236.549 306.68 236.117 306.68 235.633C306.68 235.185 306.763 234.789 306.93 234.445C307.096 234.102 307.344 233.812 307.672 233.578C308 233.339 308.406 233.159 308.891 233.039C309.38 232.914 309.94 232.852 310.57 232.852H311.961ZM317.672 231.273V238H315.609V229.547H317.562L317.672 231.273ZM320.242 229.492L320.211 231.414C320.096 231.393 319.966 231.378 319.82 231.367C319.68 231.357 319.547 231.352 319.422 231.352C319.104 231.352 318.826 231.396 318.586 231.484C318.346 231.568 318.146 231.69 317.984 231.852C317.828 232.013 317.708 232.211 317.625 232.445C317.542 232.674 317.495 232.935 317.484 233.227L317.039 233.172C317.039 232.635 317.094 232.138 317.203 231.68C317.312 231.221 317.471 230.82 317.68 230.477C317.888 230.133 318.148 229.867 318.461 229.68C318.779 229.487 319.143 229.391 319.555 229.391C319.669 229.391 319.792 229.401 319.922 229.422C320.057 229.438 320.164 229.461 320.242 229.492ZM325.766 229.547V231.031H320.922V229.547H325.766ZM322.219 227.469H324.289V235.562C324.289 235.812 324.323 236.005 324.391 236.141C324.458 236.276 324.56 236.367 324.695 236.414C324.831 236.461 324.992 236.484 325.18 236.484C325.315 236.484 325.44 236.477 325.555 236.461C325.669 236.445 325.766 236.43 325.844 236.414L325.852 237.961C325.68 238.018 325.484 238.065 325.266 238.102C325.052 238.138 324.81 238.156 324.539 238.156C324.076 238.156 323.669 238.078 323.32 237.922C322.971 237.76 322.701 237.503 322.508 237.148C322.315 236.789 322.219 236.315 322.219 235.727V227.469ZM230.977 251.93H228.07L228.055 250.414H230.547C230.974 250.414 231.331 250.354 231.617 250.234C231.904 250.115 232.12 249.94 232.266 249.711C232.417 249.482 232.492 249.203 232.492 248.875C232.492 248.51 232.422 248.214 232.281 247.984C232.146 247.755 231.932 247.589 231.641 247.484C231.349 247.375 230.979 247.32 230.531 247.32H228.766V257H226.617V245.625H230.531C231.177 245.625 231.753 245.688 232.258 245.812C232.768 245.932 233.201 246.12 233.555 246.375C233.909 246.63 234.177 246.951 234.359 247.336C234.547 247.721 234.641 248.18 234.641 248.711C234.641 249.18 234.531 249.612 234.312 250.008C234.099 250.398 233.768 250.716 233.32 250.961C232.878 251.206 232.315 251.346 231.633 251.383L230.977 251.93ZM230.883 257H227.438L228.336 255.312H230.883C231.31 255.312 231.661 255.242 231.938 255.102C232.219 254.961 232.427 254.768 232.562 254.523C232.703 254.273 232.773 253.987 232.773 253.664C232.773 253.31 232.711 253.003 232.586 252.742C232.466 252.482 232.273 252.281 232.008 252.141C231.747 252 231.404 251.93 230.977 251.93H228.742L228.758 250.414H231.602L232.094 251C232.75 251.005 233.284 251.135 233.695 251.391C234.112 251.646 234.419 251.974 234.617 252.375C234.815 252.776 234.914 253.208 234.914 253.672C234.914 254.401 234.755 255.013 234.438 255.508C234.125 256.003 233.667 256.375 233.062 256.625C232.464 256.875 231.737 257 230.883 257ZM241.648 254.992V248.547H243.727V257H241.773L241.648 254.992ZM241.914 253.242L242.555 253.227C242.555 253.794 242.492 254.318 242.367 254.797C242.242 255.276 242.047 255.693 241.781 256.047C241.521 256.396 241.19 256.669 240.789 256.867C240.388 257.06 239.914 257.156 239.367 257.156C238.951 257.156 238.57 257.099 238.227 256.984C237.883 256.865 237.586 256.68 237.336 256.43C237.091 256.174 236.901 255.849 236.766 255.453C236.63 255.052 236.562 254.57 236.562 254.008V248.547H238.625V254.023C238.625 254.305 238.656 254.539 238.719 254.727C238.786 254.914 238.878 255.068 238.992 255.188C239.112 255.302 239.25 255.385 239.406 255.438C239.568 255.484 239.74 255.508 239.922 255.508C240.422 255.508 240.815 255.409 241.102 255.211C241.393 255.008 241.602 254.737 241.727 254.398C241.852 254.055 241.914 253.669 241.914 253.242ZM250.203 254.688C250.203 254.51 250.156 254.352 250.062 254.211C249.969 254.07 249.792 253.943 249.531 253.828C249.276 253.708 248.901 253.596 248.406 253.492C247.969 253.398 247.565 253.281 247.195 253.141C246.826 253 246.508 252.831 246.242 252.633C245.977 252.43 245.768 252.193 245.617 251.922C245.471 251.646 245.398 251.328 245.398 250.969C245.398 250.62 245.474 250.292 245.625 249.984C245.776 249.672 245.995 249.398 246.281 249.164C246.568 248.924 246.917 248.737 247.328 248.602C247.74 248.461 248.203 248.391 248.719 248.391C249.438 248.391 250.055 248.508 250.57 248.742C251.091 248.977 251.49 249.299 251.766 249.711C252.042 250.117 252.18 250.576 252.18 251.086H250.117C250.117 250.862 250.065 250.659 249.961 250.477C249.862 250.294 249.708 250.148 249.5 250.039C249.292 249.924 249.029 249.867 248.711 249.867C248.424 249.867 248.182 249.914 247.984 250.008C247.792 250.102 247.646 250.224 247.547 250.375C247.448 250.526 247.398 250.693 247.398 250.875C247.398 251.01 247.424 251.133 247.477 251.242C247.534 251.346 247.625 251.443 247.75 251.531C247.875 251.62 248.044 251.701 248.258 251.773C248.477 251.846 248.745 251.917 249.062 251.984C249.693 252.109 250.242 252.276 250.711 252.484C251.185 252.688 251.555 252.958 251.82 253.297C252.086 253.635 252.219 254.068 252.219 254.594C252.219 254.969 252.138 255.312 251.977 255.625C251.815 255.932 251.581 256.201 251.273 256.43C250.966 256.659 250.599 256.839 250.172 256.969C249.745 257.094 249.263 257.156 248.727 257.156C247.951 257.156 247.294 257.018 246.758 256.742C246.221 256.461 245.815 256.107 245.539 255.68C245.263 255.247 245.125 254.799 245.125 254.336H247.102C247.117 254.664 247.206 254.927 247.367 255.125C247.529 255.323 247.732 255.466 247.977 255.555C248.227 255.638 248.49 255.68 248.766 255.68C249.078 255.68 249.341 255.638 249.555 255.555C249.768 255.466 249.93 255.349 250.039 255.203C250.148 255.052 250.203 254.88 250.203 254.688ZM255.977 248.547V257H253.906V248.547H255.977ZM253.766 246.336C253.766 246.029 253.87 245.773 254.078 245.57C254.292 245.367 254.578 245.266 254.938 245.266C255.297 245.266 255.581 245.367 255.789 245.57C256.003 245.773 256.109 246.029 256.109 246.336C256.109 246.638 256.003 246.891 255.789 247.094C255.581 247.297 255.297 247.398 254.938 247.398C254.578 247.398 254.292 247.297 254.078 247.094C253.87 246.891 253.766 246.638 253.766 246.336ZM259.969 250.352V257H257.906V248.547H259.844L259.969 250.352ZM259.641 252.469H259.031C259.036 251.854 259.12 251.297 259.281 250.797C259.443 250.297 259.669 249.867 259.961 249.508C260.258 249.148 260.609 248.872 261.016 248.68C261.422 248.487 261.875 248.391 262.375 248.391C262.781 248.391 263.148 248.448 263.477 248.562C263.805 248.677 264.086 248.859 264.32 249.109C264.56 249.359 264.742 249.688 264.867 250.094C264.997 250.495 265.062 250.99 265.062 251.578V257H262.984V251.562C262.984 251.177 262.927 250.872 262.812 250.648C262.703 250.424 262.542 250.266 262.328 250.172C262.12 250.078 261.862 250.031 261.555 250.031C261.237 250.031 260.958 250.096 260.719 250.227C260.484 250.352 260.286 250.526 260.125 250.75C259.969 250.974 259.849 251.232 259.766 251.523C259.682 251.815 259.641 252.13 259.641 252.469ZM270.68 257.156C270.039 257.156 269.464 257.052 268.953 256.844C268.443 256.635 268.008 256.346 267.648 255.977C267.294 255.602 267.021 255.167 266.828 254.672C266.641 254.172 266.547 253.635 266.547 253.062V252.75C266.547 252.099 266.641 251.508 266.828 250.977C267.016 250.44 267.281 249.979 267.625 249.594C267.969 249.208 268.38 248.911 268.859 248.703C269.339 248.495 269.867 248.391 270.445 248.391C271.044 248.391 271.573 248.492 272.031 248.695C272.49 248.893 272.872 249.174 273.18 249.539C273.487 249.904 273.719 250.341 273.875 250.852C274.031 251.357 274.109 251.917 274.109 252.531V253.398H267.484V251.977H272.078V251.82C272.068 251.492 272.005 251.193 271.891 250.922C271.776 250.646 271.599 250.427 271.359 250.266C271.12 250.099 270.81 250.016 270.43 250.016C270.122 250.016 269.854 250.083 269.625 250.219C269.401 250.349 269.214 250.536 269.062 250.781C268.917 251.021 268.807 251.307 268.734 251.641C268.661 251.974 268.625 252.344 268.625 252.75V253.062C268.625 253.417 268.672 253.745 268.766 254.047C268.865 254.349 269.008 254.612 269.195 254.836C269.388 255.055 269.617 255.227 269.883 255.352C270.154 255.471 270.461 255.531 270.805 255.531C271.237 255.531 271.628 255.448 271.977 255.281C272.331 255.109 272.638 254.857 272.898 254.523L273.938 255.602C273.76 255.862 273.521 256.112 273.219 256.352C272.922 256.591 272.562 256.786 272.141 256.938C271.719 257.083 271.232 257.156 270.68 257.156ZM280.141 254.688C280.141 254.51 280.094 254.352 280 254.211C279.906 254.07 279.729 253.943 279.469 253.828C279.214 253.708 278.839 253.596 278.344 253.492C277.906 253.398 277.503 253.281 277.133 253.141C276.763 253 276.445 252.831 276.18 252.633C275.914 252.43 275.706 252.193 275.555 251.922C275.409 251.646 275.336 251.328 275.336 250.969C275.336 250.62 275.411 250.292 275.562 249.984C275.714 249.672 275.932 249.398 276.219 249.164C276.505 248.924 276.854 248.737 277.266 248.602C277.677 248.461 278.141 248.391 278.656 248.391C279.375 248.391 279.992 248.508 280.508 248.742C281.029 248.977 281.427 249.299 281.703 249.711C281.979 250.117 282.117 250.576 282.117 251.086H280.055C280.055 250.862 280.003 250.659 279.898 250.477C279.799 250.294 279.646 250.148 279.438 250.039C279.229 249.924 278.966 249.867 278.648 249.867C278.362 249.867 278.12 249.914 277.922 250.008C277.729 250.102 277.583 250.224 277.484 250.375C277.385 250.526 277.336 250.693 277.336 250.875C277.336 251.01 277.362 251.133 277.414 251.242C277.471 251.346 277.562 251.443 277.688 251.531C277.812 251.62 277.982 251.701 278.195 251.773C278.414 251.846 278.682 251.917 279 251.984C279.63 252.109 280.18 252.276 280.648 252.484C281.122 252.688 281.492 252.958 281.758 253.297C282.023 253.635 282.156 254.068 282.156 254.594C282.156 254.969 282.076 255.312 281.914 255.625C281.753 255.932 281.518 256.201 281.211 256.43C280.904 256.659 280.536 256.839 280.109 256.969C279.682 257.094 279.201 257.156 278.664 257.156C277.888 257.156 277.232 257.018 276.695 256.742C276.159 256.461 275.753 256.107 275.477 255.68C275.201 255.247 275.062 254.799 275.062 254.336H277.039C277.055 254.664 277.143 254.927 277.305 255.125C277.466 255.323 277.669 255.466 277.914 255.555C278.164 255.638 278.427 255.68 278.703 255.68C279.016 255.68 279.279 255.638 279.492 255.555C279.706 255.466 279.867 255.349 279.977 255.203C280.086 255.052 280.141 254.88 280.141 254.688ZM288.375 254.688C288.375 254.51 288.328 254.352 288.234 254.211C288.141 254.07 287.964 253.943 287.703 253.828C287.448 253.708 287.073 253.596 286.578 253.492C286.141 253.398 285.737 253.281 285.367 253.141C284.997 253 284.68 252.831 284.414 252.633C284.148 252.43 283.94 252.193 283.789 251.922C283.643 251.646 283.57 251.328 283.57 250.969C283.57 250.62 283.646 250.292 283.797 249.984C283.948 249.672 284.167 249.398 284.453 249.164C284.74 248.924 285.089 248.737 285.5 248.602C285.911 248.461 286.375 248.391 286.891 248.391C287.609 248.391 288.227 248.508 288.742 248.742C289.263 248.977 289.661 249.299 289.938 249.711C290.214 250.117 290.352 250.576 290.352 251.086H288.289C288.289 250.862 288.237 250.659 288.133 250.477C288.034 250.294 287.88 250.148 287.672 250.039C287.464 249.924 287.201 249.867 286.883 249.867C286.596 249.867 286.354 249.914 286.156 250.008C285.964 250.102 285.818 250.224 285.719 250.375C285.62 250.526 285.57 250.693 285.57 250.875C285.57 251.01 285.596 251.133 285.648 251.242C285.706 251.346 285.797 251.443 285.922 251.531C286.047 251.62 286.216 251.701 286.43 251.773C286.648 251.846 286.917 251.917 287.234 251.984C287.865 252.109 288.414 252.276 288.883 252.484C289.357 252.688 289.727 252.958 289.992 253.297C290.258 253.635 290.391 254.068 290.391 254.594C290.391 254.969 290.31 255.312 290.148 255.625C289.987 255.932 289.753 256.201 289.445 256.43C289.138 256.659 288.771 256.839 288.344 256.969C287.917 257.094 287.435 257.156 286.898 257.156C286.122 257.156 285.466 257.018 284.93 256.742C284.393 256.461 283.987 256.107 283.711 255.68C283.435 255.247 283.297 254.799 283.297 254.336H285.273C285.289 254.664 285.378 254.927 285.539 255.125C285.701 255.323 285.904 255.466 286.148 255.555C286.398 255.638 286.661 255.68 286.938 255.68C287.25 255.68 287.513 255.638 287.727 255.555C287.94 255.466 288.102 255.349 288.211 255.203C288.32 255.052 288.375 254.88 288.375 254.688ZM302.055 254.047C302.055 253.828 302.021 253.633 301.953 253.461C301.891 253.284 301.773 253.125 301.602 252.984C301.435 252.839 301.198 252.698 300.891 252.562C300.589 252.422 300.198 252.276 299.719 252.125C299.188 251.958 298.693 251.771 298.234 251.562C297.776 251.354 297.372 251.112 297.023 250.836C296.68 250.56 296.411 250.242 296.219 249.883C296.026 249.518 295.93 249.096 295.93 248.617C295.93 248.148 296.029 247.721 296.227 247.336C296.43 246.951 296.716 246.62 297.086 246.344C297.456 246.062 297.891 245.846 298.391 245.695C298.896 245.544 299.453 245.469 300.062 245.469C300.906 245.469 301.635 245.622 302.25 245.93C302.87 246.237 303.349 246.654 303.688 247.18C304.026 247.706 304.195 248.297 304.195 248.953H302.055C302.055 248.599 301.979 248.286 301.828 248.016C301.682 247.745 301.458 247.531 301.156 247.375C300.859 247.219 300.484 247.141 300.031 247.141C299.594 247.141 299.229 247.206 298.938 247.336C298.651 247.466 298.435 247.643 298.289 247.867C298.148 248.091 298.078 248.341 298.078 248.617C298.078 248.826 298.128 249.013 298.227 249.18C298.326 249.341 298.474 249.495 298.672 249.641C298.87 249.781 299.115 249.914 299.406 250.039C299.703 250.159 300.047 250.279 300.438 250.398C301.062 250.586 301.609 250.794 302.078 251.023C302.552 251.253 302.945 251.513 303.258 251.805C303.576 252.096 303.812 252.424 303.969 252.789C304.13 253.154 304.211 253.568 304.211 254.031C304.211 254.521 304.115 254.958 303.922 255.344C303.729 255.729 303.453 256.057 303.094 256.328C302.734 256.599 302.302 256.805 301.797 256.945C301.297 257.086 300.737 257.156 300.117 257.156C299.565 257.156 299.018 257.083 298.477 256.938C297.94 256.786 297.453 256.562 297.016 256.266C296.578 255.964 296.229 255.583 295.969 255.125C295.708 254.661 295.578 254.12 295.578 253.5H297.734C297.734 253.859 297.792 254.167 297.906 254.422C298.026 254.672 298.193 254.878 298.406 255.039C298.625 255.195 298.88 255.31 299.172 255.383C299.464 255.456 299.779 255.492 300.117 255.492C300.555 255.492 300.914 255.432 301.195 255.312C301.482 255.188 301.695 255.016 301.836 254.797C301.982 254.578 302.055 254.328 302.055 254.047ZM305.344 252.859V252.695C305.344 252.076 305.432 251.505 305.609 250.984C305.786 250.458 306.044 250.003 306.383 249.617C306.721 249.232 307.135 248.932 307.625 248.719C308.115 248.5 308.672 248.391 309.297 248.391C309.932 248.391 310.495 248.5 310.984 248.719C311.479 248.932 311.896 249.232 312.234 249.617C312.573 250.003 312.831 250.458 313.008 250.984C313.185 251.505 313.273 252.076 313.273 252.695V252.859C313.273 253.474 313.185 254.044 313.008 254.57C312.831 255.091 312.573 255.547 312.234 255.938C311.896 256.323 311.482 256.622 310.992 256.836C310.503 257.049 309.943 257.156 309.312 257.156C308.688 257.156 308.128 257.049 307.633 256.836C307.138 256.622 306.721 256.323 306.383 255.938C306.044 255.547 305.786 255.091 305.609 254.57C305.432 254.044 305.344 253.474 305.344 252.859ZM307.406 252.695V252.859C307.406 253.229 307.443 253.576 307.516 253.898C307.589 254.221 307.701 254.505 307.852 254.75C308.003 254.995 308.198 255.188 308.438 255.328C308.682 255.464 308.974 255.531 309.312 255.531C309.646 255.531 309.932 255.464 310.172 255.328C310.411 255.188 310.607 254.995 310.758 254.75C310.914 254.505 311.029 254.221 311.102 253.898C311.174 253.576 311.211 253.229 311.211 252.859V252.695C311.211 252.331 311.174 251.99 311.102 251.672C311.029 251.349 310.914 251.065 310.758 250.82C310.607 250.57 310.409 250.375 310.164 250.234C309.924 250.089 309.635 250.016 309.297 250.016C308.964 250.016 308.677 250.089 308.438 250.234C308.198 250.375 308.003 250.57 307.852 250.82C307.701 251.065 307.589 251.349 307.516 251.672C307.443 251.99 307.406 252.331 307.406 252.695ZM316.961 245V257H314.891V245H316.961ZM323.961 254.992V248.547H326.039V257H324.086L323.961 254.992ZM324.227 253.242L324.867 253.227C324.867 253.794 324.805 254.318 324.68 254.797C324.555 255.276 324.359 255.693 324.094 256.047C323.833 256.396 323.503 256.669 323.102 256.867C322.701 257.06 322.227 257.156 321.68 257.156C321.263 257.156 320.883 257.099 320.539 256.984C320.195 256.865 319.898 256.68 319.648 256.43C319.404 256.174 319.214 255.849 319.078 255.453C318.943 255.052 318.875 254.57 318.875 254.008V248.547H320.938V254.023C320.938 254.305 320.969 254.539 321.031 254.727C321.099 254.914 321.19 255.068 321.305 255.188C321.424 255.302 321.562 255.385 321.719 255.438C321.88 255.484 322.052 255.508 322.234 255.508C322.734 255.508 323.128 255.409 323.414 255.211C323.706 255.008 323.914 254.737 324.039 254.398C324.164 254.055 324.227 253.669 324.227 253.242ZM331.867 248.547V250.031H327.023V248.547H331.867ZM328.32 246.469H330.391V254.562C330.391 254.812 330.424 255.005 330.492 255.141C330.56 255.276 330.661 255.367 330.797 255.414C330.932 255.461 331.094 255.484 331.281 255.484C331.417 255.484 331.542 255.477 331.656 255.461C331.771 255.445 331.867 255.43 331.945 255.414L331.953 256.961C331.781 257.018 331.586 257.065 331.367 257.102C331.154 257.138 330.911 257.156 330.641 257.156C330.177 257.156 329.771 257.078 329.422 256.922C329.073 256.76 328.802 256.503 328.609 256.148C328.417 255.789 328.32 255.315 328.32 254.727V246.469ZM335.43 248.547V257H333.359V248.547H335.43ZM333.219 246.336C333.219 246.029 333.323 245.773 333.531 245.57C333.745 245.367 334.031 245.266 334.391 245.266C334.75 245.266 335.034 245.367 335.242 245.57C335.456 245.773 335.562 246.029 335.562 246.336C335.562 246.638 335.456 246.891 335.242 247.094C335.034 247.297 334.75 247.398 334.391 247.398C334.031 247.398 333.745 247.297 333.531 247.094C333.323 246.891 333.219 246.638 333.219 246.336ZM337.031 252.859V252.695C337.031 252.076 337.12 251.505 337.297 250.984C337.474 250.458 337.732 250.003 338.07 249.617C338.409 249.232 338.823 248.932 339.312 248.719C339.802 248.5 340.359 248.391 340.984 248.391C341.62 248.391 342.182 248.5 342.672 248.719C343.167 248.932 343.583 249.232 343.922 249.617C344.26 250.003 344.518 250.458 344.695 250.984C344.872 251.505 344.961 252.076 344.961 252.695V252.859C344.961 253.474 344.872 254.044 344.695 254.57C344.518 255.091 344.26 255.547 343.922 255.938C343.583 256.323 343.169 256.622 342.68 256.836C342.19 257.049 341.63 257.156 341 257.156C340.375 257.156 339.815 257.049 339.32 256.836C338.826 256.622 338.409 256.323 338.07 255.938C337.732 255.547 337.474 255.091 337.297 254.57C337.12 254.044 337.031 253.474 337.031 252.859ZM339.094 252.695V252.859C339.094 253.229 339.13 253.576 339.203 253.898C339.276 254.221 339.388 254.505 339.539 254.75C339.69 254.995 339.885 255.188 340.125 255.328C340.37 255.464 340.661 255.531 341 255.531C341.333 255.531 341.62 255.464 341.859 255.328C342.099 255.188 342.294 254.995 342.445 254.75C342.602 254.505 342.716 254.221 342.789 253.898C342.862 253.576 342.898 253.229 342.898 252.859V252.695C342.898 252.331 342.862 251.99 342.789 251.672C342.716 251.349 342.602 251.065 342.445 250.82C342.294 250.57 342.096 250.375 341.852 250.234C341.612 250.089 341.323 250.016 340.984 250.016C340.651 250.016 340.365 250.089 340.125 250.234C339.885 250.375 339.69 250.57 339.539 250.82C339.388 251.065 339.276 251.349 339.203 251.672C339.13 251.99 339.094 252.331 339.094 252.695ZM348.484 250.352V257H346.422V248.547H348.359L348.484 250.352ZM348.156 252.469H347.547C347.552 251.854 347.635 251.297 347.797 250.797C347.958 250.297 348.185 249.867 348.477 249.508C348.773 249.148 349.125 248.872 349.531 248.68C349.938 248.487 350.391 248.391 350.891 248.391C351.297 248.391 351.664 248.448 351.992 248.562C352.32 248.677 352.602 248.859 352.836 249.109C353.076 249.359 353.258 249.688 353.383 250.094C353.513 250.495 353.578 250.99 353.578 251.578V257H351.5V251.562C351.5 251.177 351.443 250.872 351.328 250.648C351.219 250.424 351.057 250.266 350.844 250.172C350.635 250.078 350.378 250.031 350.07 250.031C349.753 250.031 349.474 250.096 349.234 250.227C349 250.352 348.802 250.526 348.641 250.75C348.484 250.974 348.365 251.232 348.281 251.523C348.198 251.815 348.156 252.13 348.156 252.469Z" fill="black"/>
</svg>
